# xmcd CD database file
#
# Track frame offsets:
#	182
#	42070
#	84220
#	124720
#	154840
#	179065
#	207895
#	235795
#
# Disc length: 3749 seconds
#
# Revision: 0
# Processed by: cddbd v1.5.1PL2 Copyright (c) Steve Scherf et al.
# Submitted via: CDex 1.51
#
DISCID=5e0ea308
DTITLE=Scott Tinkler Quartet - Back Of My Head
DYEAR=1994
DGENRE=Jazz
TTITLE0=Back Of My Head
TTITLE1=C.O.D.
TTITLE2=Ond For Mum
TTITLE3=Shaw 69
TTITLE4=The Bruise
TTITLE5=Generation
TTITLE6=Beaked Up
TTITLE7=No Particular Reason
EXTD=YEAR: 1994
EXTT0=
EXTT1=
EXTT2=
EXTT3=
EXTT4=
EXTT5=
EXTT6=
EXTT7=
PLAYORDER=
